<svg width="61" height="61" viewBox="0 0 61 61" fill="none" xmlns="http://www.w3.org/2000/svg">
<path fill-rule="evenodd" clip-rule="evenodd" d="M21.6309 24.271H39.5834C40.0896 24.271 40.5 24.6814 40.5 25.1876C40.5 25.6938 40.0896 26.1042 39.5834 26.1042H21.6309L27.4 31.8714C27.7584 32.2298 27.7584 32.8109 27.4 33.1693C27.0416 33.5277 26.4605 33.5277 26.1021 33.1693L18.7693 25.8365C18.5969 25.6646 18.5 25.4311 18.5 25.1876C18.5 24.9441 18.5969 24.7106 18.7693 24.5386L26.1021 17.2058C26.3339 16.974 26.6718 16.8834 26.9886 16.9683C27.3053 17.0532 27.5526 17.3005 27.6375 17.6173C27.7224 17.934 27.6318 18.2719 27.4 18.5037L21.6309 24.271Z" fill="#121924"/>
<g opacity="0.197126" filter="url(#filter0_d_12_29039)">
<circle cx="30.1875" cy="25.1875" r="19.9375" fill="white"/>
</g>
<defs>
<filter id="filter0_d_12_29039" x="0.25" y="0.25" width="59.875" height="59.875" filterUnits="userSpaceOnUse" color-interpolation-filters="sRGB">
<feFlood flood-opacity="0" result="BackgroundImageFix"/>
<feColorMatrix in="SourceAlpha" type="matrix" values="0 0 0 0 0 0 0 0 0 0 0 0 0 0 0 0 0 0 127 0" result="hardAlpha"/>
<feOffset dy="5"/>
<feGaussianBlur stdDeviation="5"/>
<feColorMatrix type="matrix" values="0 0 0 0 0.184499 0 0 0 0 0.0402279 0 0 0 0 0.475487 0 0 0 0.193974 0"/>
<feBlend mode="normal" in2="BackgroundImageFix" result="effect1_dropShadow_12_29039"/>
<feBlend mode="normal" in="SourceGraphic" in2="effect1_dropShadow_12_29039" result="shape"/>
</filter>
</defs>
</svg>
