<svg width="22" height="22" viewBox="0 0 22 22" fill="none" xmlns="http://www.w3.org/2000/svg">
<path fill-rule="evenodd" clip-rule="evenodd" d="M15.5833 14.9344L19.1162 18.4672C19.2954 18.6464 19.2954 18.937 19.1162 19.1162C18.9369 19.2954 18.6464 19.2954 18.4672 19.1162L14.9343 15.5825C11.9641 18.2027 7.44985 17.9908 4.73804 15.1039C2.02623 12.217 2.09687 7.69838 4.89761 4.89764C7.69834 2.09691 12.217 2.02627 15.1039 4.73808C17.9908 7.44989 18.2027 11.9641 15.5824 14.9344H15.5833ZM10.0833 16.5C12.3758 16.5 14.4941 15.277 15.6403 13.2917C16.7866 11.3064 16.7866 8.86036 15.6403 6.87503C14.4941 4.88971 12.3758 3.6667 10.0833 3.6667C6.5395 3.6667 3.66666 6.53954 3.66666 10.0834C3.66666 13.6272 6.5395 16.5 10.0833 16.5Z" fill="#121924"/>
</svg>
