<svg width="23" height="18" viewBox="0 0 23 18" fill="none" xmlns="http://www.w3.org/2000/svg">
<path fill-rule="evenodd" clip-rule="evenodd" d="M3.63091 8.27098H21.5834C22.0896 8.27098 22.5 8.68135 22.5 9.18758C22.5 9.6938 22.0896 10.1042 21.5834 10.1042H3.63091L9.39998 15.8714C9.75838 16.2298 9.75838 16.8109 9.39998 17.1693C9.04157 17.5277 8.46048 17.5277 8.10207 17.1693L0.769285 9.83653C0.596888 9.66457 0.5 9.43107 0.5 9.18758C0.5 8.94408 0.596888 8.71059 0.769285 8.53862L8.10207 1.20584C8.33392 0.973989 8.67185 0.883442 8.98856 0.968304C9.30527 1.05317 9.55265 1.30055 9.63751 1.61726C9.72237 1.93397 9.63182 2.27189 9.39998 2.50374L3.63091 8.27098Z" fill="#121924"/>
</svg>
