<svg width="15" height="14" viewBox="0 0 15 14" fill="none" xmlns="http://www.w3.org/2000/svg">
<path fill-rule="evenodd" clip-rule="evenodd" d="M7.03835 12.8334C3.8166 12.8334 1.20502 10.2218 1.20502 7.00008C1.20502 3.77833 3.8166 1.16675 7.03835 1.16675C10.2601 1.16675 12.8717 3.77833 12.8717 7.00008C12.8717 10.2218 10.2601 12.8334 7.03835 12.8334ZM7.03835 12.2501C8.91399 12.2501 10.6472 11.2494 11.585 9.62508C12.5228 8.00073 12.5228 5.99944 11.585 4.37508C10.6472 2.75073 8.91399 1.75008 7.03835 1.75008C4.13886 1.75008 1.78835 4.10059 1.78835 7.00008C1.78835 9.89958 4.13886 12.2501 7.03835 12.2501ZM9.24919 8.22101C9.33776 8.27998 9.38719 8.3825 9.37816 8.48853C9.36914 8.59455 9.30309 8.68725 9.20582 8.7304C9.10856 8.77355 8.99551 8.7603 8.91085 8.69584L6.86919 7.23751C6.8145 7.19853 6.77494 7.14186 6.75719 7.07709L5.88219 3.86876C5.85084 3.76707 5.87735 3.65638 5.95138 3.57993C6.0254 3.50349 6.13518 3.47342 6.23783 3.50149C6.34047 3.52955 6.41969 3.61129 6.44452 3.71476L7.29269 6.82334L9.24977 8.22101H9.24919Z" fill="#121924"/>
</svg>
