<svg width="35" height="35" viewBox="0 0 35 35" fill="none" xmlns="http://www.w3.org/2000/svg">
<path fill-rule="evenodd" clip-rule="evenodd" d="M17.5 20.4167C14.2783 20.4167 11.6666 17.805 11.6666 14.5833C11.6666 11.3617 14.2783 8.75 17.5 8.75C20.7216 8.75 23.3333 11.3617 23.3333 14.5833C23.3333 17.805 20.7216 20.4167 17.5 20.4167ZM17.5 18.9583C19.9162 18.9583 21.875 16.9996 21.875 14.5833C21.875 12.1671 19.9162 10.2083 17.5 10.2083C15.0837 10.2083 13.125 12.1671 13.125 14.5833C13.125 16.9996 15.0837 18.9583 17.5 18.9583ZM17.9958 30.431C17.7161 30.6904 17.2838 30.6904 17.0041 30.431C10.5525 24.4737 7.29163 19.2092 7.29163 14.5833C7.29163 10.9362 9.23732 7.5662 12.3958 5.74266C15.5543 3.91911 19.4457 3.91911 22.6041 5.74266C25.7626 7.5662 27.7083 10.9362 27.7083 14.5833C27.7083 19.2092 24.4489 24.4737 17.9958 30.431ZM26.25 14.5833C26.25 9.75085 22.3324 5.83334 17.5 5.83334C12.6675 5.83334 8.74996 9.75085 8.74996 14.5833C8.74996 18.5967 11.6477 23.3844 17.5 28.8983C23.3522 23.3858 26.25 18.5967 26.25 14.5833Z" fill="#121924"/>
</svg>
