<svg width="14" height="14" viewBox="0 0 14 14" fill="none" xmlns="http://www.w3.org/2000/svg">
<path d="M5.68748 5.10417C5.59026 5.15278 4.78331 5.36667 2.33331 5.83333L4.37498 8.45833L3.79165 11.8125L7.14581 10.3542L10.2083 11.8125L9.77081 8.45833L11.9583 5.83333L8.60415 5.10417L6.85415 2.1875L5.68748 5.10417Z" fill="#F6C949"/>
<path d="M12.8333 5.6408C12.7965 5.5341 12.7295 5.44038 12.6404 5.37101C12.5514 5.30163 12.4441 5.25959 12.3316 5.24996L9.01247 4.7658L7.52497 1.74996C7.4772 1.65134 7.40262 1.56816 7.30977 1.50996C7.21692 1.45177 7.10955 1.4209 6.99997 1.4209C6.89038 1.4209 6.78302 1.45177 6.69016 1.50996C6.59731 1.56816 6.52273 1.65134 6.47497 1.74996L4.98747 4.75996L1.6683 5.24996C1.56034 5.26531 1.45884 5.31061 1.37532 5.38072C1.2918 5.45084 1.22961 5.54296 1.1958 5.64663C1.16485 5.74794 1.16207 5.85576 1.18777 5.95853C1.21346 6.0613 1.26665 6.15514 1.34163 6.22996L3.7508 8.5633L3.16747 11.8766C3.14664 11.986 3.15755 12.099 3.19889 12.2024C3.24024 12.3058 3.3103 12.3951 3.4008 12.46C3.48901 12.523 3.59305 12.5603 3.70124 12.5675C3.80944 12.5747 3.9175 12.5516 4.0133 12.5008L6.99997 10.9433L9.97497 12.5066C10.0568 12.5528 10.1493 12.5769 10.2433 12.5766C10.3669 12.5771 10.4874 12.5383 10.5875 12.4658C10.678 12.401 10.748 12.3116 10.7894 12.2082C10.8307 12.1049 10.8416 11.9918 10.8208 11.8825L10.2375 8.56913L12.6466 6.2358C12.7309 6.16444 12.7931 6.07066 12.8261 5.96533C12.8592 5.86001 12.8617 5.74747 12.8333 5.6408ZM9.2458 7.97413C9.17739 8.0403 9.12621 8.1222 9.09672 8.2127C9.06723 8.30319 9.06034 8.39953 9.07663 8.4933L9.49663 10.9375L7.3033 9.7708C7.2189 9.72586 7.12475 9.70235 7.02913 9.70235C6.93352 9.70235 6.83936 9.72586 6.75497 9.7708L4.56163 10.9375L4.98163 8.4933C4.99793 8.39953 4.99103 8.30319 4.96155 8.2127C4.93206 8.1222 4.88088 8.0403 4.81247 7.97413L3.06247 6.22413L5.5183 5.8683C5.6128 5.85515 5.70263 5.81903 5.77992 5.76309C5.85722 5.70716 5.91961 5.63312 5.96163 5.54746L6.99997 3.32496L8.09663 5.5533C8.13866 5.63895 8.20105 5.71299 8.27834 5.76893C8.35563 5.82486 8.44547 5.86098 8.53997 5.87413L10.9958 6.22996L9.2458 7.97413Z" fill="#F6C949"/>
</svg>
