<svg width="15" height="14" viewBox="0 0 15 14" fill="none" xmlns="http://www.w3.org/2000/svg">
<path fill-rule="evenodd" clip-rule="evenodd" d="M7.0383 8.15387C5.33026 7.99795 4.04692 6.52621 4.12496 4.81284C4.203 3.09947 5.61482 1.75049 7.32997 1.75049C9.04512 1.75049 10.4569 3.09947 10.535 4.81284C10.613 6.52621 9.32968 7.99795 7.62164 8.15387V11.9584C7.62164 12.1195 7.49105 12.25 7.32997 12.25C7.16889 12.25 7.0383 12.1195 7.0383 11.9584V8.15387ZM7.32997 7.58334C8.77972 7.58334 9.95497 6.40809 9.95497 4.95834C9.95497 3.50859 8.77972 2.33334 7.32997 2.33334C5.88023 2.33334 4.70497 3.50859 4.70497 4.95834C4.70497 6.40809 5.88023 7.58334 7.32997 7.58334Z" fill="#121924"/>
</svg>
