<svg width="20" height="20" viewBox="0 0 20 20" fill="none" xmlns="http://www.w3.org/2000/svg">
<path fill-rule="evenodd" clip-rule="evenodd" d="M7.95333 18.2782C7.85499 18.3343 7.73807 18.348 7.62945 18.3161C7.52083 18.2841 7.42987 18.2094 7.3775 18.1091L6.28083 16.004L3.93166 15.8707C3.81922 15.8644 3.71413 15.8128 3.64034 15.7277C3.56655 15.6426 3.53036 15.5313 3.54 15.419L3.74416 13.0465L1.8375 11.6499C1.74713 11.5837 1.68719 11.484 1.6712 11.3732C1.65521 11.2623 1.68451 11.1497 1.7525 11.0607L3.19416 9.17571L2.33583 6.95738C2.29534 6.8526 2.29888 6.73592 2.34563 6.63378C2.39239 6.53165 2.4784 6.45271 2.58416 6.41488L4.80166 5.61822L5.2675 3.28488C5.28938 3.17389 5.35545 3.07657 5.45054 3.01528C5.54562 2.95398 5.66154 2.93399 5.77166 2.95988L8.06166 3.50155L9.69916 1.79488C9.77775 1.71287 9.88641 1.6665 10 1.6665C10.1136 1.6665 10.2222 1.71287 10.3008 1.79488L11.9383 3.49988L14.2283 2.95988C14.3382 2.93395 14.4539 2.95373 14.549 3.01468C14.644 3.07563 14.7102 3.17253 14.7325 3.28322L15.1983 5.61655L17.4158 6.41405C17.5214 6.45189 17.6072 6.53069 17.654 6.63263C17.7007 6.73456 17.7044 6.85104 17.6642 6.95572L16.8058 9.17488L18.2475 11.0599C18.3155 11.1489 18.3448 11.2615 18.3288 11.3723C18.3128 11.4832 18.2529 11.5829 18.1625 11.649L16.2558 13.0457L16.46 15.4182C16.4696 15.5304 16.4334 15.6418 16.3597 15.7269C16.2859 15.8119 16.1808 15.8635 16.0683 15.8699L13.7192 16.0032L12.6225 18.1082C12.5701 18.2086 12.4792 18.2833 12.3705 18.3152C12.2619 18.3471 12.145 18.3335 12.0467 18.2774L10 17.1074L7.95333 18.2782ZM11.745 6.84071C11.8316 6.71954 11.9763 6.65379 12.1246 6.66823C12.2728 6.68268 12.4021 6.77512 12.4638 6.91073C12.5254 7.04635 12.51 7.20454 12.4233 7.32571L8.25666 13.159C8.12273 13.3464 7.86231 13.3896 7.67499 13.2557C7.48767 13.1218 7.44439 12.8614 7.57832 12.674L11.745 6.84071ZM7.5 7.49991V8.33325H8.33333V7.49991H7.5ZM7.5 6.66662H8.33333C8.79357 6.66662 9.16666 7.03971 9.16666 7.49995V8.33328C9.16666 8.79352 8.79357 9.16662 8.33333 9.16662H7.5C7.03976 9.16662 6.66666 8.79352 6.66666 8.33328V7.49995C6.66666 7.03971 7.03976 6.66662 7.5 6.66662ZM11.6667 11.6666V12.4999H12.5V11.6666H11.6667ZM11.6667 10.8333H12.5C12.9602 10.8333 13.3333 11.2064 13.3333 11.6666V12.4999C13.3333 12.9602 12.9602 13.3333 12.5 13.3333H11.6667C11.2064 13.3333 10.8333 12.9602 10.8333 12.4999V11.6666C10.8333 11.2064 11.2064 10.8333 11.6667 10.8333Z" fill="#E94E18"/>
</svg>
