<svg width="19" height="18" viewBox="0 0 19 18" fill="none" xmlns="http://www.w3.org/2000/svg">
<path fill-rule="evenodd" clip-rule="evenodd" d="M14.25 13.5V3.375C14.25 2.75368 13.7183 2.25 13.0625 2.25H4.53783C4.67241 2.4705 4.74999 2.727 4.74999 3V15C4.74999 15.4142 5.10443 15.75 5.54166 15.75C5.97888 15.75 6.33332 15.4142 6.33332 15V13.875C6.33332 13.6679 6.51055 13.5 6.72916 13.5H14.25ZM15.0417 13.5H17.0208C17.2394 13.5 17.4167 13.6679 17.4167 13.875V14.625C17.4167 15.6605 16.5306 16.5 15.4375 16.5H5.54166C4.66721 16.5 3.95833 15.8284 3.95833 15V4.5H3.16666C2.29221 4.5 1.58333 3.82843 1.58333 3C1.58333 2.17157 2.29221 1.5 3.16666 1.5H13.0625C14.1556 1.5 15.0417 2.33947 15.0417 3.375V13.5ZM7.12499 14.25V15C7.12499 15.273 7.0482 15.5295 6.91282 15.75H15.4375C16.0933 15.75 16.625 15.2463 16.625 14.625V14.25H7.12499ZM3.95833 3.75V3C3.95833 2.58579 3.60389 2.25 3.16667 2.25C2.72944 2.25 2.375 2.58579 2.375 3C2.375 3.41422 2.72944 3.75 3.16667 3.75H3.95833ZM6.72916 5.25C6.51055 5.25 6.33333 5.08211 6.33333 4.875C6.33333 4.6679 6.51055 4.5 6.72916 4.5H12.2708C12.4894 4.5 12.6667 4.6679 12.6667 4.875C12.6667 5.08211 12.4894 5.25 12.2708 5.25H6.72916ZM6.72916 7.5C6.51055 7.5 6.33333 7.33211 6.33333 7.125C6.33333 6.9179 6.51055 6.75 6.72916 6.75H12.2708C12.4894 6.75 12.6667 6.9179 12.6667 7.125C12.6667 7.33211 12.4894 7.5 12.2708 7.5H6.72916ZM6.72916 9.75C6.51055 9.75 6.33333 9.58211 6.33333 9.375C6.33333 9.1679 6.51055 9 6.72916 9H12.2708C12.4894 9 12.6667 9.1679 12.6667 9.375C12.6667 9.58211 12.4894 9.75 12.2708 9.75H6.72916ZM6.72916 12C6.51055 12 6.33333 11.8321 6.33333 11.625C6.33333 11.4179 6.51055 11.25 6.72916 11.25H10.6875C10.9061 11.25 11.0833 11.4179 11.0833 11.625C11.0833 11.8321 10.9061 12 10.6875 12H6.72916Z" fill="white"/>
</svg>
