<svg width="35" height="35" viewBox="0 0 35 35" fill="none" xmlns="http://www.w3.org/2000/svg">
<path fill-rule="evenodd" clip-rule="evenodd" d="M24.7917 23.7591L30.4121 29.3795C30.6972 29.6647 30.6972 30.1269 30.4121 30.412C30.127 30.6972 29.6647 30.6972 29.3796 30.412L23.7592 24.7902C19.0337 28.9587 11.8521 28.6217 7.53781 24.0288C3.22357 19.436 3.33596 12.2473 7.79167 7.79161C12.2474 3.3359 19.4361 3.22351 24.0289 7.53775C28.6217 11.852 28.9588 19.0337 24.7902 23.7591H24.7917ZM16.0417 26.2499C19.6888 26.2499 23.0588 24.3042 24.8824 21.1458C26.7059 17.9873 26.7059 14.0959 24.8824 10.9374C23.0588 7.77896 19.6888 5.83326 16.0417 5.83326C10.4038 5.83326 5.83335 10.4037 5.83335 16.0416C5.83335 21.6795 10.4038 26.2499 16.0417 26.2499Z" fill="#121924"/>
</svg>
