<svg width="24" height="24" viewBox="0 0 24 24" fill="none" xmlns="http://www.w3.org/2000/svg">
<path fill-rule="evenodd" clip-rule="evenodd" d="M15.379 19.14L12.108 12.6L19.467 5.24098L15.379 19.141V19.14ZM4.85998 8.62113L18.76 4.53413L11.401 11.8921L4.85998 8.62213V8.62113ZM3.35896 8.02106C3.1617 8.07889 3.01994 8.25155 3.00161 8.45628C2.98327 8.66102 3.09211 8.85612 3.27596 8.94806L11.128 12.8731L15.053 20.7241C15.1449 20.9079 15.34 21.0168 15.5447 20.9984C15.7495 20.9801 15.9221 20.8383 15.98 20.6411L20.98 3.64107C21.0313 3.46558 20.9827 3.27608 20.8533 3.14691C20.7239 3.01773 20.5344 2.96947 20.359 3.02107L3.35896 8.02106Z" fill="#121924"/>
</svg>
