<svg width="35" height="35" viewBox="0 0 35 35" fill="none" xmlns="http://www.w3.org/2000/svg">
<path fill-rule="evenodd" clip-rule="evenodd" d="M13.125 10.2084H10.9375C9.72939 10.2084 8.75001 11.1878 8.75001 12.3959V28.4376C8.75001 29.6457 9.72939 30.6251 10.9375 30.6251H24.0625C25.2706 30.6251 26.25 29.6457 26.25 28.4376V12.3959C26.25 11.1878 25.2706 10.2084 24.0625 10.2084H21.875V13.8542C21.875 14.2569 21.5486 14.5834 21.1458 14.5834C20.7431 14.5834 20.4167 14.2569 20.4167 13.8542V10.2084H14.5833V13.8542C14.5833 14.2569 14.2569 14.5834 13.8542 14.5834C13.4515 14.5834 13.125 14.2569 13.125 13.8542V10.2084ZM13.125 8.75008V7.29175C13.125 4.8755 15.0838 2.91675 17.5 2.91675C19.9163 2.91675 21.875 4.8755 21.875 7.29175V8.75008H24.0625C26.0761 8.75008 27.7084 10.3824 27.7084 12.3959V28.4376C27.7084 30.4511 26.0761 32.0834 24.0625 32.0834H10.9375C8.92398 32.0834 7.29169 30.4511 7.29169 28.4376V12.3959C7.29169 10.3824 8.92398 8.75008 10.9375 8.75008H13.125ZM20.4167 8.75009V7.29176C20.4167 5.68093 19.1109 4.37509 17.5 4.37509C15.8892 4.37509 14.5834 5.68093 14.5834 7.29176V8.75009H20.4167Z" fill="#121924"/>
</svg>
