<svg width="26" height="26" viewBox="0 0 26 26" fill="none" xmlns="http://www.w3.org/2000/svg">
<path fill-rule="evenodd" clip-rule="evenodd" d="M20.0503 21.6667C20.9478 21.6667 21.6753 20.9391 21.6753 20.0417V7.27892C21.3451 7.47614 20.968 7.58125 20.5833 7.58333H5.41667C5.02017 7.58333 4.65292 7.46958 4.33333 7.28325V20.0417C4.33333 20.9391 5.06087 21.6667 5.95833 21.6667H20.0503ZM5.41667 4.33333C4.81836 4.33333 4.33333 4.81836 4.33333 5.41667C4.33333 6.01498 4.81836 6.5 5.41667 6.5H20.5833C21.1816 6.5 21.6667 6.01498 21.6667 5.41667C21.6667 4.81836 21.1816 4.33333 20.5833 4.33333H5.41667ZM22.7392 5.32133C22.7457 5.35058 22.7587 5.37767 22.7587 5.408V20.0417C22.7587 21.5374 21.5461 22.75 20.0503 22.75H5.95833C4.46256 22.75 3.25 21.5374 3.25 20.0417V5.41667C3.25 4.22005 4.22005 3.25 5.41667 3.25H20.5833C21.7468 3.25 22.6904 4.16975 22.7392 5.32133ZM17.875 8.66667C18.1742 8.66667 18.4167 8.90918 18.4167 9.20834C18.4167 9.50749 18.1742 9.75 17.875 9.75H17.3333C17.3333 12.1432 15.3932 14.0833 13 14.0833C10.6068 14.0833 8.66667 12.1432 8.66667 9.75H8.125C7.82585 9.75 7.58333 9.50749 7.58333 9.20834C7.58333 8.90918 7.82585 8.66667 8.125 8.66667H10.2917C10.5908 8.66667 10.8333 8.90918 10.8333 9.20834C10.8333 9.50749 10.5908 9.75 10.2917 9.75H9.75C9.75 11.5449 11.2051 13 13 13C14.7949 13 16.25 11.5449 16.25 9.75H15.7083C15.4092 9.75 15.1667 9.50749 15.1667 9.20834C15.1667 8.90918 15.4092 8.66667 15.7083 8.66667H17.875Z" fill="white"/>
</svg>
