<svg width="24" height="24" viewBox="0 0 24 24" fill="none" xmlns="http://www.w3.org/2000/svg">
<path fill-rule="evenodd" clip-rule="evenodd" d="M16.1554 13.0365L21.1969 15.329C22.4982 15.9208 23.3335 17.2186 23.3333 18.6481V19.6865C23.3333 21.7 21.701 23.3323 19.6875 23.3323H3.64583C1.6323 23.3323 2.78068e-08 21.7 2.78068e-08 19.6865V18.6481C-0.000175974 17.2186 0.835157 15.9208 2.13646 15.329L7.17792 13.0379C4.72531 11.1221 3.75905 7.8607 4.77217 4.918C5.78529 1.97531 8.55445 0 11.6667 0C14.7789 0 17.548 1.97531 18.5612 4.918C19.5743 7.8607 18.608 11.1221 16.1554 13.0379V13.0365ZM8.69313 13.9508L2.74167 16.656C1.96013 17.0108 1.45826 17.7898 1.45833 18.6481V19.6865C1.45833 20.8946 2.43771 21.874 3.64583 21.874H19.6875C20.8956 21.874 21.875 20.8946 21.875 19.6865V18.6481C21.8751 17.7898 21.3732 17.0108 20.5917 16.656L14.6402 13.9508C13.7046 14.3686 12.6913 14.5838 11.6667 14.5823C10.6421 14.5838 9.62869 14.3686 8.69313 13.9508ZM11.6667 13.124C14.8883 13.124 17.5 10.5123 17.5 7.29062C17.5 4.06895 14.8883 1.45728 11.6667 1.45728C8.44501 1.45728 5.83334 4.06895 5.83334 7.29062C5.83334 10.5123 8.44501 13.124 11.6667 13.124Z" fill="#121924"/>
</svg>
