<svg width="42" height="38" viewBox="0 0 42 38" fill="none" xmlns="http://www.w3.org/2000/svg">
<path fill-rule="evenodd" clip-rule="evenodd" d="M24.1554 13.0365L29.1969 15.329C30.4982 15.9208 31.3335 17.2186 31.3333 18.6481V19.6865C31.3333 21.7 29.701 23.3323 27.6875 23.3323H11.6458C9.6323 23.3323 8 21.7 8 19.6865V18.6481C7.99982 17.2186 8.83516 15.9208 10.1365 15.329L15.1779 13.0379C12.7253 11.1221 11.759 7.8607 12.7722 4.918C13.7853 1.97531 16.5545 0 19.6667 0C22.7789 0 25.548 1.97531 26.5612 4.918C27.5743 7.8607 26.608 11.1221 24.1554 13.0379V13.0365ZM16.6931 13.9508L10.7417 16.656C9.96013 17.0108 9.45826 17.7898 9.45833 18.6481V19.6865C9.45833 20.8946 10.4377 21.874 11.6458 21.874H27.6875C28.8956 21.874 29.875 20.8946 29.875 19.6865V18.6481C29.8751 17.7898 29.3732 17.0108 28.5917 16.656L22.6402 13.9508C21.7046 14.3686 20.6913 14.5838 19.6667 14.5823C18.6421 14.5838 17.6287 14.3686 16.6931 13.9508ZM19.6667 13.124C22.8883 13.124 25.5 10.5123 25.5 7.29062C25.5 4.06895 22.8883 1.45728 19.6667 1.45728C16.445 1.45728 13.8333 4.06895 13.8333 7.29062C13.8333 10.5123 16.445 13.124 19.6667 13.124Z" fill="#121924"/>
<path d="M6.46 37H5.32L1.89 31.81V37H0.75V30.04H1.89L5.32 35.22V30.04H6.46V37ZM13.007 34.11C13.007 34.3167 12.9937 34.5033 12.967 34.67H8.75703C8.79036 35.11 8.9537 35.4633 9.24703 35.73C9.54036 35.9967 9.90036 36.13 10.327 36.13C10.9404 36.13 11.3737 35.8733 11.627 35.36H12.857C12.6904 35.8667 12.387 36.2833 11.947 36.61C11.5137 36.93 10.9737 37.09 10.327 37.09C9.80036 37.09 9.32703 36.9733 8.90703 36.74C8.4937 36.5 8.16703 36.1667 7.92703 35.74C7.6937 35.3067 7.57703 34.8067 7.57703 34.24C7.57703 33.6733 7.69036 33.1767 7.91703 32.75C8.15036 32.3167 8.4737 31.9833 8.88703 31.75C9.30703 31.5167 9.78703 31.4 10.327 31.4C10.847 31.4 11.3104 31.5133 11.717 31.74C12.1237 31.9667 12.4404 32.2867 12.667 32.7C12.8937 33.1067 13.007 33.5767 13.007 34.11ZM11.817 33.75C11.8104 33.33 11.6604 32.9933 11.367 32.74C11.0737 32.4867 10.7104 32.36 10.277 32.36C9.8837 32.36 9.54703 32.4867 9.26703 32.74C8.98703 32.9867 8.82036 33.3233 8.76703 33.75H11.817ZM13.7489 34.22C13.7489 33.6667 13.8622 33.1767 14.0889 32.75C14.3222 32.3233 14.6356 31.9933 15.0289 31.76C15.4289 31.52 15.8689 31.4 16.3489 31.4C16.7822 31.4 17.1589 31.4867 17.4789 31.66C17.8056 31.8267 18.0656 32.0367 18.2589 32.29V31.49H19.4089V37H18.2589V36.18C18.0656 36.44 17.8022 36.6567 17.4689 36.83C17.1356 37.0033 16.7556 37.09 16.3289 37.09C15.8556 37.09 15.4222 36.97 15.0289 36.73C14.6356 36.4833 14.3222 36.1433 14.0889 35.71C13.8622 35.27 13.7489 34.7733 13.7489 34.22ZM18.2589 34.24C18.2589 33.86 18.1789 33.53 18.0189 33.25C17.8656 32.97 17.6622 32.7567 17.4089 32.61C17.1556 32.4633 16.8822 32.39 16.5889 32.39C16.2956 32.39 16.0222 32.4633 15.7689 32.61C15.5156 32.75 15.3089 32.96 15.1489 33.24C14.9956 33.5133 14.9189 33.84 14.9189 34.22C14.9189 34.6 14.9956 34.9333 15.1489 35.22C15.3089 35.5067 15.5156 35.7267 15.7689 35.88C16.0289 36.0267 16.3022 36.1 16.5889 36.1C16.8822 36.1 17.1556 36.0267 17.4089 35.88C17.6622 35.7333 17.8656 35.52 18.0189 35.24C18.1789 34.9533 18.2589 34.62 18.2589 34.24ZM22.0463 32.29C22.2129 32.01 22.4329 31.7933 22.7063 31.64C22.9863 31.48 23.3163 31.4 23.6963 31.4V32.58H23.4063C22.9596 32.58 22.6196 32.6933 22.3863 32.92C22.1596 33.1467 22.0463 33.54 22.0463 34.1V37H20.9063V31.49H22.0463V32.29ZM34.6618 30.05V37H33.5218V32.24L31.4018 37H30.6118L28.4818 32.24V37H27.3418V30.05H28.5718L31.0118 35.5L33.4418 30.05H34.6618ZM41.2102 34.11C41.2102 34.3167 41.1968 34.5033 41.1702 34.67H36.9602C36.9935 35.11 37.1568 35.4633 37.4502 35.73C37.7435 35.9967 38.1035 36.13 38.5302 36.13C39.1435 36.13 39.5768 35.8733 39.8302 35.36H41.0602C40.8935 35.8667 40.5902 36.2833 40.1502 36.61C39.7168 36.93 39.1768 37.09 38.5302 37.09C38.0035 37.09 37.5302 36.9733 37.1102 36.74C36.6968 36.5 36.3702 36.1667 36.1302 35.74C35.8968 35.3067 35.7802 34.8067 35.7802 34.24C35.7802 33.6733 35.8935 33.1767 36.1202 32.75C36.3535 32.3167 36.6768 31.9833 37.0902 31.75C37.5102 31.5167 37.9902 31.4 38.5302 31.4C39.0502 31.4 39.5135 31.5133 39.9202 31.74C40.3268 31.9667 40.6435 32.2867 40.8702 32.7C41.0968 33.1067 41.2102 33.5767 41.2102 34.11ZM40.0202 33.75C40.0135 33.33 39.8635 32.9933 39.5702 32.74C39.2768 32.4867 38.9135 32.36 38.4802 32.36C38.0868 32.36 37.7502 32.4867 37.4702 32.74C37.1902 32.9867 37.0235 33.3233 36.9702 33.75H40.0202Z" fill="#575454"/>
</svg>
