<svg width="12" height="12" viewBox="0 0 12 12" fill="none" xmlns="http://www.w3.org/2000/svg">
<path d="M11.8333 4.6408C11.7965 4.5341 11.7295 4.44038 11.6404 4.37101C11.5514 4.30163 11.4441 4.25959 11.3316 4.24996L8.01247 3.7658L6.52497 0.749963C6.4772 0.651338 6.40262 0.568162 6.30977 0.509964C6.21692 0.451766 6.10955 0.420898 5.99997 0.420898C5.89038 0.420898 5.78302 0.451766 5.69016 0.509964C5.59731 0.568162 5.52273 0.651338 5.47497 0.749963L3.98747 3.75996L0.6683 4.24996C0.560338 4.26531 0.458839 4.31061 0.375321 4.38072C0.291803 4.45084 0.22961 4.54296 0.1958 4.64663C0.164851 4.74794 0.162074 4.85576 0.187766 4.95853C0.213458 5.0613 0.26665 5.15514 0.341633 5.22996L2.7508 7.5633L2.16747 10.8766C2.14664 10.986 2.15755 11.099 2.19889 11.2024C2.24024 11.3058 2.3103 11.3951 2.4008 11.46C2.48901 11.523 2.59305 11.5603 2.70124 11.5675C2.80944 11.5747 2.9175 11.5516 3.0133 11.5008L5.99997 9.9433L8.97497 11.5066C9.05684 11.5528 9.1493 11.5769 9.2433 11.5766C9.36686 11.5771 9.48738 11.5383 9.58746 11.4658C9.67797 11.401 9.74803 11.3116 9.78937 11.2082C9.83072 11.1049 9.84162 10.9918 9.8208 10.8825L9.23746 7.56913L11.6466 5.2358C11.7309 5.16444 11.7931 5.07066 11.8261 4.96533C11.8592 4.86001 11.8617 4.74747 11.8333 4.6408ZM8.2458 6.97413C8.17739 7.0403 8.12621 7.1222 8.09672 7.2127C8.06723 7.30319 8.06034 7.39953 8.07663 7.4933L8.49663 9.93746L6.3033 8.7708C6.2189 8.72586 6.12475 8.70235 6.02913 8.70235C5.93352 8.70235 5.83936 8.72586 5.75497 8.7708L3.56163 9.93746L3.98163 7.4933C3.99793 7.39953 3.99103 7.30319 3.96155 7.2127C3.93206 7.1222 3.88088 7.0403 3.81247 6.97413L2.06247 5.22413L4.5183 4.8683C4.6128 4.85515 4.70263 4.81903 4.77992 4.76309C4.85722 4.70716 4.91961 4.63312 4.96163 4.54746L5.99997 2.32496L7.09663 4.5533C7.13866 4.63895 7.20105 4.71299 7.27834 4.76893C7.35563 4.82486 7.44547 4.86098 7.53997 4.87413L9.9958 5.22996L8.2458 6.97413Z" fill="#F6C949"/>
</svg>
