<svg width="15" height="14" viewBox="0 0 15 14" fill="none" xmlns="http://www.w3.org/2000/svg">
<path fill-rule="evenodd" clip-rule="evenodd" d="M12.2884 4.95833C12.0362 4.76855 11.729 4.66616 11.4134 4.66667H11.0925C10.9535 3.98782 10.3563 3.50031 9.66335 3.5H4.41335C3.72041 3.50031 3.12321 3.98782 2.98418 4.66667H2.66335C2.1801 4.66667 1.78835 4.27492 1.78835 3.79167V3.20833C1.78835 2.72508 2.1801 2.33333 2.66335 2.33333H11.4134C11.8966 2.33333 12.2884 2.72508 12.2884 3.20833V4.95833ZM3.58794 4.66667C3.7116 4.3169 4.04237 4.08314 4.41335 4.08333H9.66335C10.0343 4.08314 10.3651 4.3169 10.4888 4.66667H3.58794ZM12.2884 7H10.2467C9.44127 7 8.78835 7.65292 8.78835 8.45833C8.78835 9.26375 9.44127 9.91667 10.2467 9.91667H12.2884V10.7917C12.2884 11.2749 11.8966 11.6667 11.4134 11.6667H2.66335C2.1801 11.6667 1.78835 11.2749 1.78835 10.7917V4.95833C2.03218 5.1415 2.33493 5.25 2.66335 5.25H11.4134C11.8966 5.25 12.2884 5.64175 12.2884 6.125V7ZM12.2884 9.33333H10.2467C9.76343 9.33333 9.37168 8.94158 9.37168 8.45833C9.37168 7.97508 9.76343 7.58333 10.2467 7.58333H12.2884V9.33333ZM11.4134 1.75H2.66335C1.85794 1.75 1.20502 2.40292 1.20502 3.20833V10.7917C1.20502 11.5971 1.85794 12.25 2.66335 12.25H11.4134C12.2188 12.25 12.8717 11.5971 12.8717 10.7917V3.20833C12.8717 2.40292 12.2188 1.75 11.4134 1.75Z" fill="#121924"/>
</svg>
